<mxfile host="app.diagrams.net" modified="2024-03-13T03:46:53.436Z" agent="Mozilla/5.0 (Windows NT 10.0; Win64; x64) AppleWebKit/537.36 (KHTML, like Gecko) Chrome/122.0.0.0 Safari/537.36" version="24.0.5" etag="U2GRuTd-Jv39MZGvX7v9" type="github">
  <diagram name="หน้า-1" id="_I3MNZV7jnPhuc-B1Y3j">
    <mxGraphModel>
      <root>
        <mxCell id="0" />
        <mxCell id="1" parent="0" />
      </root>
    </mxGraphModel>
  </diagram>
</mxfile>
